<svg width="20" height="20" viewBox="0 0 20 20" fill="none" xmlns="http://www.w3.org/2000/svg">
<g clip-path="url(#clip0_2164_3548)">
<path d="M1.33008 9.89889C1.33127 6.00853 3.98685 2.58753 7.76811 1.60294C8.74147 1.3494 9.72941 1.26249 10.7312 1.34486C14.2983 1.63828 17.3067 4.08328 18.3264 7.51716C18.627 8.52921 18.7192 9.5625 18.6358 10.6144C18.3465 14.2598 15.6833 17.4134 11.9686 18.265C7.56565 19.2745 3.21808 16.8139 1.78513 12.6567C1.48502 11.7857 1.32984 10.8481 1.33008 9.89889ZM6.2621 10.1073C4.92727 10.093 3.80707 11.1822 3.79251 12.5086C3.77746 13.8778 4.86448 14.9911 6.23034 15.0052C7.58356 15.0193 8.72261 13.928 8.73431 12.606C8.74649 11.2172 7.66354 10.1224 6.2621 10.1073ZM13.732 9.69787C15.0668 9.71363 16.1884 8.62494 16.2037 7.29895C16.2195 5.92878 15.1396 4.82029 13.7685 4.79975C12.4217 4.77946 11.2762 5.87483 11.2619 7.19677C11.2474 8.58388 12.331 9.68116 13.732 9.69787ZM12.4738 16.1858C13.8442 16.1851 14.946 15.0921 14.9434 13.736C14.9405 12.3809 13.837 11.2891 12.4683 11.2874C11.1139 11.2858 9.99919 12.3967 9.99919 13.7477C9.99919 15.0883 11.1137 16.1865 12.4738 16.1858ZM7.5179 3.61939C6.14726 3.62274 5.04927 4.71643 5.05309 6.07394C5.05714 7.42716 6.16684 8.52061 7.53318 8.51775C8.88926 8.51488 9.99943 7.40447 9.99776 6.05269C9.99632 4.71404 8.87732 3.61605 7.5179 3.61939ZM9.94738 11.0485C10.5531 11.0494 11.0466 10.566 11.0482 9.97028C11.0499 9.37079 10.5614 8.87897 9.96171 8.87658C9.35195 8.87396 8.85416 9.36148 8.85321 9.96216C8.85225 10.5578 9.3455 11.0475 9.94738 11.0485Z" fill="#666666"/>
<path d="M19.3588 8.69742C18.9703 6.14332 17.7608 4.0784 15.7544 2.46137C15.9643 2.51676 16.1746 2.57096 16.384 2.62778C16.9071 2.7696 17.4438 2.86844 17.9518 3.05752C19.0804 3.47772 19.746 4.3002 19.9609 5.48008C20.0499 5.96832 19.9762 6.45058 19.8415 6.92616C19.6854 7.47815 19.5424 8.03395 19.3934 8.58808C19.3834 8.62484 19.3702 8.66089 19.3588 8.69742Z" fill="#666666"/>
<path d="M11.3633 19.1955C13.8739 18.7827 15.9174 17.5746 17.5029 15.5718C17.5234 15.631 17.4874 15.6744 17.4812 15.7207C17.4745 15.7711 17.4547 15.8198 17.4408 15.8692C17.2661 16.4979 17.1417 17.1425 16.9177 17.7549C16.5114 18.8658 15.7001 19.523 14.5432 19.7537C14.0922 19.8437 13.6428 19.815 13.1997 19.7004C12.6024 19.5459 12.0067 19.3857 11.4101 19.2282C11.3919 19.2236 11.3688 19.2277 11.3633 19.1955Z" fill="#666666"/>
<path d="M8.5882 0.579219C7.41786 0.769023 6.30841 1.13789 5.27106 1.71852C4.23132 2.30058 3.33315 3.05358 2.55078 3.96058C2.59256 3.80253 2.63267 3.644 2.6766 3.48667C2.81269 2.99915 2.9046 2.49731 3.08557 2.02459C3.50314 0.934474 4.3027 0.283174 5.44439 0.0513518C6.00329 -0.0620525 6.54716 0.025806 7.08744 0.177887C7.55562 0.309436 8.02762 0.428093 8.49795 0.552719C8.52827 0.560836 8.55812 0.570386 8.5882 0.579219Z" fill="#666666"/>
<path d="M4.04002 17.2843C3.3276 17.0821 2.58987 16.9771 1.91064 16.6932C0.826017 16.2403 0.19907 15.4071 0.0278886 14.2398C-0.0306042 13.8419 0.00592392 13.4484 0.109301 13.0609C0.247774 12.5409 0.389111 12.0219 0.528778 11.5024C0.53594 11.4761 0.533553 11.4458 0.566261 11.4336C0.9929 13.8175 2.16419 15.7585 4.04002 17.2843Z" fill="#666666"/>
</g>
<defs>
<clipPath id="clip0_2164_3548">
<rect width="20" height="19.8069" fill="white"/>
</clipPath>
</defs>
</svg>
