<svg width="15" height="20" viewBox="0 0 15 20" fill="none" xmlns="http://www.w3.org/2000/svg">
<path d="M7.06595 20C6.78888 19.8939 6.63027 19.6549 6.45061 19.4433C4.83665 17.5392 3.34114 15.5486 2.09775 13.3805C1.25429 11.9104 0.499933 10.3943 0.16216 8.71698C-0.321492 6.31679 0.281604 4.19664 1.90634 2.37316C2.94805 1.20459 4.25705 0.462691 5.78926 0.156741C7.8673 -0.258198 9.7882 0.150383 11.5153 1.3864C12.8174 2.31843 13.699 3.56421 14.193 5.08174C14.3663 5.61398 14.4617 6.16381 14.5063 6.72342C14.6291 8.26832 14.1832 9.69397 13.5864 11.0835C12.8756 12.7393 11.9431 14.2715 10.9205 15.7514C9.97618 17.1174 8.9516 18.4204 7.87024 19.6804C7.75373 19.8162 7.62205 19.9277 7.45757 19.9995C7.32638 20 7.19616 20 7.06595 20ZM7.26763 3.64877C5.27624 3.64388 3.6471 5.2489 3.63829 7.22535C3.62898 9.23505 5.23512 10.8552 7.2456 10.864C9.24679 10.8728 10.8789 9.26437 10.8847 7.27667C10.8906 5.2704 9.2791 3.65366 7.26763 3.64877Z" fill="#666666"/>
</svg>
