<svg width="19" height="18" viewBox="0 0 19 18" fill="none" xmlns="http://www.w3.org/2000/svg">
<g clip-path="url(#clip0_2455_1826)">
<path d="M7.20976 16.1865C7.30024 14.7781 7.38506 13.3698 7.46988 11.9614C7.47554 11.8199 7.54905 11.7492 7.62822 11.6656C9.18893 10.0386 10.7496 8.40514 12.3104 6.77814C13.2773 5.76849 14.2443 4.75884 15.2113 3.7492C15.2621 3.69775 15.313 3.63987 15.3583 3.57556C15.3979 3.51769 15.3979 3.45338 15.3583 3.3955C15.313 3.33119 15.2621 3.29904 15.1943 3.33762C15.1377 3.36978 15.0812 3.40836 15.0303 3.44052C11.677 5.76849 8.32375 8.09646 4.97613 10.4244C4.84607 10.5145 4.73298 10.5338 4.58595 10.4759C3.22316 9.94212 1.86036 9.42122 0.497561 8.89389C0.169584 8.76527 -5.85137e-05 8.54019 -0.00571328 8.20579C-0.011368 7.87138 0.146965 7.6463 0.497561 7.49839C3.40976 6.23151 6.32197 4.96463 9.23417 3.70418C11.988 2.50804 14.7419 1.31833 17.4901 0.109327C18.2535 -0.225079 18.8699 0.308683 18.9717 0.938908C19.0056 1.1447 18.9773 1.33762 18.9377 1.53698C17.9255 6.75241 16.9133 11.9678 15.8955 17.1833C15.7428 17.9743 15.0925 18.2444 14.5214 17.7556C13.1246 16.5595 11.7279 15.3569 10.3312 14.1543C10.2068 14.045 10.1389 14.0386 10.0202 14.1736C9.31333 14.9775 8.58953 15.7749 7.87703 16.5723C7.73 16.7331 7.59429 16.9068 7.36244 16.7846C7.14756 16.6495 7.19845 16.4116 7.20976 16.1865Z" fill="#666666"/>
</g>
<defs>
<clipPath id="clip0_2455_1826">
<rect width="19" height="18" fill="white"/>
</clipPath>
</defs>
</svg>
