<svg width="8" height="12" viewBox="0 0 8 12" fill="none" xmlns="http://www.w3.org/2000/svg">
<path d="M1.44682 12C1.59238 11.9395 1.72301 11.8484 1.82977 11.7332C3.36575 10.2069 4.90277 8.67959 6.44085 7.15124C6.66931 6.92472 6.89611 6.69611 7.12122 6.46542C7.40104 6.18112 7.40356 5.82262 7.12122 5.54143C5.3333 3.76537 3.54684 1.98909 1.76185 0.212605C1.57761 0.0293028 1.35816 -0.047384 1.10663 0.0293029C0.993841 0.0610536 0.89289 0.12485 0.816236 0.212818C0.739581 0.300787 0.690577 0.409082 0.675268 0.524341C0.661476 0.603489 0.664474 0.684618 0.68407 0.762554C0.703667 0.840489 0.739431 0.913518 0.789083 0.976983C0.829838 1.02957 0.874617 1.07897 0.92302 1.12475C1.93415 2.13062 2.94591 3.13711 3.9583 4.14423C4.54749 4.72718 5.13103 5.31636 5.72463 5.89931C5.81141 5.98472 5.80637 6.03086 5.72463 6.11316C4.11571 7.71008 2.50847 9.30659 0.902898 10.9027C0.699163 11.1053 0.607985 11.3329 0.709853 11.6128C0.783424 11.813 0.943142 11.9289 1.13996 12L1.44682 12Z" fill="#212121"/>
</svg>
