<svg width="24" height="24" viewBox="0 0 24 24" fill="none" xmlns="http://www.w3.org/2000/svg">
<path d="M11.947 22.0007C9.66179 21.9928 7.44762 21.2059 5.66989 19.7701C3.89216 18.3342 2.65713 16.3351 2.16864 14.1027C2.14092 13.9731 2.16584 13.8378 2.2379 13.7265C2.30997 13.6153 2.42328 13.5372 2.55291 13.5095C2.68254 13.4818 2.81787 13.5067 2.92913 13.5787C3.04039 13.6508 3.11846 13.7641 3.14618 13.8938C3.62146 16.1072 4.91319 18.0603 6.76401 19.364C8.61484 20.6677 10.8889 21.2263 13.1331 20.9284C15.3773 20.6305 17.4269 19.4981 18.8736 17.7567C20.3202 16.0154 21.0578 13.7929 20.9392 11.5321C20.8206 9.27136 19.8547 7.13824 18.2338 5.55776C16.6129 3.97728 14.4561 3.06546 12.193 3.00398C9.92999 2.9425 7.72684 3.73587 6.02254 5.22601C4.31824 6.71616 3.2379 8.79369 2.99676 11.0447C2.98261 11.1763 2.91685 11.2969 2.81389 11.3801C2.71093 11.4632 2.57919 11.5022 2.44756 11.4883C2.31593 11.4745 2.19517 11.409 2.11175 11.3063C2.02834 11.2035 1.98909 11.0719 2.00262 10.9402C2.2075 9.01843 2.96486 7.1972 4.18307 5.69682C5.40129 4.19645 7.02816 3.08121 8.86689 2.48603C10.7056 1.89084 12.6774 1.84121 14.5438 2.34314C16.4101 2.84506 18.091 3.87704 19.3832 5.31422C20.6754 6.75141 21.5234 8.53223 21.8247 10.4413C22.126 12.3503 21.8677 14.3057 21.081 16.071C20.2943 17.8363 19.0129 19.3359 17.3919 20.3882C15.7709 21.4405 13.8796 22.0006 11.947 22.0007Z" fill="black"/>
<path d="M11.9453 19.25C10.0894 19.2479 8.31017 18.5098 6.99786 17.1975C5.68556 15.8851 4.94739 14.1059 4.94531 12.25C4.94531 12.1174 4.99799 11.9902 5.09176 11.8964C5.18553 11.8027 5.3127 11.75 5.44531 11.75C5.57792 11.75 5.7051 11.8027 5.79887 11.8964C5.89263 11.9902 5.94531 12.1174 5.94531 12.25C5.94531 13.8413 6.57745 15.3674 7.70267 16.4926C8.82789 17.6179 10.354 18.25 11.9453 18.25C13.5366 18.25 15.0627 17.6179 16.188 16.4926C17.3132 15.3674 17.9453 13.8413 17.9453 12.25C17.9453 12.1174 17.998 11.9902 18.0918 11.8964C18.1855 11.8027 18.3127 11.75 18.4453 11.75C18.5779 11.75 18.7051 11.8027 18.7989 11.8964C18.8926 11.9902 18.9453 12.1174 18.9453 12.25C18.9432 14.1059 18.2051 15.8851 16.8928 17.1974C15.5805 18.5098 13.8012 19.2479 11.9453 19.25Z" fill="black"/>
<path d="M15.9453 11C16.4976 11 16.9453 10.5523 16.9453 10C16.9453 9.44772 16.4976 9 15.9453 9C15.393 9 14.9453 9.44772 14.9453 10C14.9453 10.5523 15.393 11 15.9453 11Z" fill="black"/>
<path d="M7.94727 11C8.49955 11 8.94727 10.5523 8.94727 10C8.94727 9.44772 8.49955 9 7.94727 9C7.39498 9 6.94727 9.44772 6.94727 10C6.94727 10.5523 7.39498 11 7.94727 11Z" fill="black"/>
</svg>
