<svg width="24" height="24" viewBox="0 0 24 24" fill="none" xmlns="http://www.w3.org/2000/svg">
<path d="M21 21.0645C21.5523 21.0645 22 20.6167 22 20.0645C22 19.5122 21.5523 19.0645 21 19.0645C20.4477 19.0645 20 19.5122 20 20.0645C20 20.6167 20.4477 21.0645 21 21.0645Z" fill="black"/>
<path d="M21 15.6875C21.5523 15.6875 22 15.2398 22 14.6875C22 14.1352 21.5523 13.6875 21 13.6875C20.4477 13.6875 20 14.1352 20 14.6875C20 15.2398 20.4477 15.6875 21 15.6875Z" fill="black"/>
<path d="M21 10.3125C21.5523 10.3125 22 9.86478 22 9.3125C22 8.76022 21.5523 8.3125 21 8.3125C20.4477 8.3125 20 8.76022 20 9.3125C20 9.86478 20.4477 10.3125 21 10.3125Z" fill="black"/>
<path d="M21 4.93555C21.5523 4.93555 22 4.48783 22 3.93555C22 3.38326 21.5523 2.93555 21 2.93555C20.4477 2.93555 20 3.38326 20 3.93555C20 4.48783 20.4477 4.93555 21 4.93555Z" fill="black"/>
<path d="M17.5 4.43555H2.5C2.36739 4.43555 2.24021 4.38287 2.14645 4.2891C2.05268 4.19533 2 4.06816 2 3.93555C2 3.80294 2.05268 3.67576 2.14645 3.58199C2.24021 3.48823 2.36739 3.43555 2.5 3.43555H17.5C17.6326 3.43555 17.7598 3.48823 17.8536 3.58199C17.9473 3.67576 18 3.80294 18 3.93555C18 4.06816 17.9473 4.19533 17.8536 4.2891C17.7598 4.38287 17.6326 4.43555 17.5 4.43555Z" fill="black"/>
<path d="M17.5225 9.81055H2.5C2.36739 9.81055 2.24021 9.75787 2.14645 9.6641C2.05268 9.57033 2 9.44316 2 9.31055C2 9.17794 2.05268 9.05076 2.14645 8.95699C2.24021 8.86323 2.36739 8.81055 2.5 8.81055H17.5225C17.6551 8.81055 17.7822 8.86323 17.876 8.95699C17.9698 9.05076 18.0225 9.17794 18.0225 9.31055C18.0225 9.44316 17.9698 9.57033 17.876 9.6641C17.7822 9.75787 17.6551 9.81055 17.5225 9.81055Z" fill="black"/>
<path d="M17.5 15.1895H2.5C2.36739 15.1895 2.24021 15.1368 2.14645 15.043C2.05268 14.9492 2 14.8221 2 14.6895C2 14.5568 2.05268 14.4297 2.14645 14.3359C2.24021 14.2421 2.36739 14.1895 2.5 14.1895H17.5C17.6326 14.1895 17.7598 14.2421 17.8536 14.3359C17.9473 14.4297 18 14.5568 18 14.6895C18 14.8221 17.9473 14.9492 17.8536 15.043C17.7598 15.1368 17.6326 15.1895 17.5 15.1895Z" fill="black"/>
<path d="M17.5308 20.5645H2.5C2.36739 20.5645 2.24021 20.5118 2.14645 20.418C2.05268 20.3242 2 20.1971 2 20.0645C2 19.9318 2.05268 19.8047 2.14645 19.7109C2.24021 19.6171 2.36739 19.5645 2.5 19.5645H17.5308C17.6634 19.5645 17.7905 19.6171 17.8843 19.7109C17.9781 19.8047 18.0308 19.9318 18.0308 20.0645C18.0308 20.1971 17.9781 20.3242 17.8843 20.418C17.7905 20.5118 17.6634 20.5645 17.5308 20.5645Z" fill="black"/>
</svg>
