<svg width="24" height="24" viewBox="0 0 24 24" fill="none" xmlns="http://www.w3.org/2000/svg">
<path d="M21.7713 16.696L21.3299 15.7322C21.2746 15.6118 21.1738 15.5182 21.0495 15.4721C20.9253 15.4259 20.7878 15.431 20.6673 15.4861C20.5468 15.5411 20.453 15.6418 20.4066 15.7659C20.3602 15.8901 20.365 16.0275 20.4198 16.1482L20.8622 17.112C21.0284 17.4753 21.0435 17.8899 20.9042 18.2644C20.7648 18.6389 20.4824 18.9427 20.1191 19.109L19.5117 19.3873C19.3319 19.4698 19.1375 19.5161 18.9398 19.5235C18.7421 19.5308 18.5448 19.4992 18.3593 19.4302C18.1739 19.3613 18.0038 19.2565 17.8589 19.1218C17.714 18.9871 17.597 18.8251 17.5147 18.6451L12.5004 7.70141C12.3343 7.33814 12.3191 6.92381 12.4583 6.54939C12.5974 6.17497 12.8795 5.87108 13.2425 5.70446L13.8509 5.42518C14.2142 5.25907 14.6285 5.24393 15.0029 5.38307C15.3774 5.52222 15.6813 5.80429 15.8479 6.16732L19.0762 13.207C19.1033 13.2668 19.1421 13.3207 19.1901 13.3655C19.2382 13.4103 19.2946 13.4452 19.3562 13.4682C19.4177 13.4912 19.4832 13.5018 19.5489 13.4995C19.6146 13.4971 19.6791 13.4818 19.7389 13.4544C19.7986 13.427 19.8524 13.3882 19.897 13.34C19.9417 13.2918 19.9765 13.2353 19.9993 13.1736C20.0221 13.112 20.0325 13.0465 20.0299 12.9808C20.0274 12.9152 20.0119 12.8506 19.9843 12.791L16.757 5.75133C16.4802 5.14702 15.9747 4.67739 15.3517 4.44573C14.7288 4.21408 14.0392 4.23937 13.4349 4.51605L12.8265 4.79533C12.6077 4.89926 12.4055 5.03487 12.2262 5.19777C12.0626 4.69791 11.7456 4.26233 11.3203 3.95291C10.895 3.64349 10.383 3.47596 9.85703 3.47412H9.18813C8.79731 3.47514 8.4122 3.5679 8.06378 3.74494C7.71536 3.92198 7.41337 4.17835 7.18213 4.49341C6.95077 4.17834 6.64869 3.92198 6.3002 3.74494C5.9517 3.56791 5.56651 3.47515 5.17562 3.47412H4.50672C3.84228 3.4748 3.20524 3.73898 2.73532 4.20872C2.2654 4.67845 2.00097 5.31539 2.00003 5.97983V7.03934C2.00147 7.17099 2.05478 7.29676 2.14839 7.38935C2.24199 7.48193 2.36834 7.53386 2.5 7.53386C2.63166 7.53386 2.75801 7.48193 2.85161 7.38935C2.94522 7.29676 2.99853 7.17099 2.99997 7.03934V5.97983C3.00056 5.58049 3.15953 5.19768 3.442 4.9154C3.72447 4.63311 4.10738 4.47439 4.50672 4.47406H5.17562C5.57496 4.47439 5.95787 4.63311 6.24034 4.9154C6.52281 5.19768 6.68178 5.58049 6.68237 5.97983V18.0182C6.68198 18.4177 6.52311 18.8007 6.24062 19.0832C5.95813 19.3657 5.57511 19.5245 5.17562 19.5249H4.50672C4.10723 19.5245 3.72421 19.3657 3.44172 19.0832C3.15923 18.8007 3.00036 18.4177 2.99997 18.0182V9.99912C3.00069 9.933 2.9883 9.8674 2.9635 9.8061C2.9387 9.74481 2.90198 9.68904 2.85548 9.64203C2.80899 9.59502 2.75363 9.5577 2.69261 9.53223C2.63159 9.50676 2.56612 9.49364 2.5 9.49364C2.43388 9.49364 2.36841 9.50676 2.30739 9.53223C2.24637 9.5577 2.19101 9.59502 2.14452 9.64203C2.09802 9.68904 2.0613 9.74481 2.0365 9.8061C2.0117 9.8674 1.99931 9.933 2.00003 9.99912V18.0182C2.00093 18.6827 2.26532 19.3198 2.73522 19.7897C3.20512 20.2596 3.84218 20.524 4.50672 20.5249H5.17562C5.56655 20.5238 5.95177 20.4309 6.30026 20.2538C6.64876 20.0766 6.95081 19.8202 7.18209 19.505C7.41327 19.8202 7.71522 20.0766 8.06365 20.2538C8.41207 20.4309 8.79722 20.5238 9.18809 20.5249H9.85703C10.5216 20.524 11.1586 20.2596 11.6285 19.7897C12.0984 19.3198 12.3628 18.6827 12.3637 18.0182V16.9587C12.3623 16.827 12.309 16.7012 12.2154 16.6087C12.1218 16.5161 11.9954 16.4641 11.8637 16.4641C11.7321 16.4641 11.6057 16.5161 11.5121 16.6087C11.4185 16.7012 11.3652 16.827 11.3638 16.9587V18.0182C11.3634 18.4177 11.2045 18.8007 10.922 19.0832C10.6395 19.3657 10.2565 19.5245 9.85703 19.5249H9.18813C8.78878 19.5243 8.40596 19.3654 8.12367 19.0829C7.84137 18.8004 7.68264 18.4175 7.68231 18.0182V5.97983C7.68285 5.58064 7.84166 5.19795 8.12393 4.91568C8.4062 4.63341 8.78889 4.4746 9.18808 4.47406H9.85703C10.2564 4.47441 10.6393 4.63313 10.9217 4.91541C11.2042 5.1977 11.3631 5.5805 11.3637 5.97983V13.9989C11.3652 14.1305 11.4185 14.2563 11.5121 14.3489C11.6057 14.4415 11.732 14.4934 11.8637 14.4934C11.9954 14.4934 12.1217 14.4415 12.2153 14.3489C12.3089 14.2563 12.3622 14.1305 12.3637 13.9989V9.80138L16.6056 19.0611C16.7421 19.3609 16.9365 19.6307 17.1776 19.8552C17.4187 20.0797 17.7017 20.2543 18.0105 20.3691C18.3192 20.4838 18.6476 20.5365 18.9768 20.524C19.306 20.5116 19.6294 20.4342 19.9286 20.2964L20.536 20.0181C21.1403 19.7413 21.61 19.2358 21.8416 18.6128C22.0733 17.9898 22.048 17.3003 21.7713 16.696Z" fill="#212121"/>
</svg>
