<svg width="20" height="20" viewBox="0 0 20 20" fill="none" xmlns="http://www.w3.org/2000/svg">
<path d="M19.5 5.5H0.5C0.367392 5.5 0.240215 5.44732 0.146447 5.35355C0.0526784 5.25979 0 5.13261 0 5C0 4.86739 0.0526784 4.74021 0.146447 4.64645C0.240215 4.55268 0.367392 4.5 0.5 4.5H19.5C19.6326 4.5 19.7598 4.55268 19.8536 4.64645C19.9473 4.74021 20 4.86739 20 5C20 5.13261 19.9473 5.25979 19.8536 5.35355C19.7598 5.44732 19.6326 5.5 19.5 5.5Z" fill="black"/>
<path d="M19.5 10.5H0.5C0.367392 10.5 0.240215 10.4473 0.146447 10.3536C0.0526784 10.2598 0 10.1326 0 10C0 9.86739 0.0526784 9.74021 0.146447 9.64645C0.240215 9.55268 0.367392 9.5 0.5 9.5H19.5C19.6326 9.5 19.7598 9.55268 19.8536 9.64645C19.9473 9.74021 20 9.86739 20 10C20 10.1326 19.9473 10.2598 19.8536 10.3536C19.7598 10.4473 19.6326 10.5 19.5 10.5Z" fill="black"/>
<path d="M19.5 15.5H0.5C0.367392 15.5 0.240215 15.4473 0.146447 15.3536C0.0526784 15.2598 0 15.1326 0 15C0 14.8674 0.0526784 14.7402 0.146447 14.6464C0.240215 14.5527 0.367392 14.5 0.5 14.5H19.5C19.6326 14.5 19.7598 14.5527 19.8536 14.6464C19.9473 14.7402 20 14.8674 20 15C20 15.1326 19.9473 15.2598 19.8536 15.3536C19.7598 15.4473 19.6326 15.5 19.5 15.5Z" fill="black"/>
</svg>
