<svg width="24" height="24" viewBox="0 0 24 24" fill="none" xmlns="http://www.w3.org/2000/svg">
<path d="M16.707 12H6.70703C6.57442 12 6.44725 11.9473 6.35348 11.8536C6.25971 11.7598 6.20703 11.6326 6.20703 11.5C6.20703 11.3674 6.25971 11.2402 6.35348 11.1464C6.44725 11.0527 6.57442 11 6.70703 11H16.707C16.8396 11 16.9668 11.0527 17.0606 11.1464C17.1544 11.2402 17.207 11.3674 17.207 11.5C17.207 11.6326 17.1544 11.7598 17.0606 11.8536C16.9668 11.9473 16.8396 12 16.707 12Z" fill="#212121"/>
<path d="M16.707 15.25H6.70703C6.57442 15.25 6.44725 15.1973 6.35348 15.1036C6.25971 15.0098 6.20703 14.8826 6.20703 14.75C6.20703 14.6174 6.25971 14.4902 6.35348 14.3964C6.44725 14.3027 6.57442 14.25 6.70703 14.25H16.707C16.8396 14.25 16.9668 14.3027 17.0606 14.3964C17.1544 14.4902 17.207 14.6174 17.207 14.75C17.207 14.8826 17.1544 15.0098 17.0606 15.1036C16.9668 15.1973 16.8396 15.25 16.707 15.25Z" fill="#212121"/>
<path d="M16.707 18.5H6.70703C6.57442 18.5 6.44725 18.4473 6.35348 18.3536C6.25971 18.2598 6.20703 18.1326 6.20703 18C6.20703 17.8674 6.25971 17.7402 6.35348 17.6464C6.44725 17.5527 6.57442 17.5 6.70703 17.5H16.707C16.8396 17.5 16.9668 17.5527 17.0606 17.6464C17.1544 17.7402 17.207 17.8674 17.207 18C17.207 18.1326 17.1544 18.2598 17.0606 18.3536C16.9668 18.4473 16.8396 18.5 16.707 18.5Z" fill="#212121"/>
<path d="M17.0571 22H6.35693C5.52182 21.999 4.72119 21.6669 4.13068 21.0764C3.54016 20.4858 3.20799 19.6852 3.20703 18.8501V5.1499C3.20799 4.31479 3.54016 3.51416 4.13068 2.92365C4.72119 2.33313 5.52182 2.00096 6.35693 2H11.0571C11.8922 2.00096 12.6929 2.33313 13.2834 2.92365C13.8739 3.51416 14.2061 4.31479 14.207 5.1499V8H16.457C16.5896 8 16.7168 8.05268 16.8106 8.14645C16.9044 8.24021 16.957 8.36739 16.957 8.5C16.957 8.63261 16.9044 8.75979 16.8106 8.85355C16.7168 8.94732 16.5896 9 16.457 9H13.707C13.6414 9.00004 13.5763 8.98713 13.5156 8.96202C13.455 8.9369 13.3998 8.90008 13.3534 8.85364C13.307 8.8072 13.2701 8.75207 13.245 8.69139C13.2199 8.63071 13.207 8.56567 13.207 8.5V5.1499C13.2064 4.5799 12.9797 4.03342 12.5767 3.63037C12.1736 3.22732 11.6271 3.00062 11.0571 3H6.35693C5.78693 3.00062 5.24045 3.22732 4.8374 3.63037C4.43435 4.03342 4.20765 4.5799 4.20703 5.1499V18.8501C4.20765 19.4201 4.43435 19.9666 4.8374 20.3696C5.24045 20.7727 5.78693 20.9994 6.35693 21H17.0571C17.6271 20.9994 18.1736 20.7727 18.5767 20.3696C18.9797 19.9666 19.2064 19.4201 19.207 18.8501V9.59766C19.2054 9.02767 18.9791 8.48132 18.5772 8.07715L15.7969 5.29688C15.7491 5.25076 15.711 5.19558 15.6848 5.13458C15.6586 5.07358 15.6448 5.00797 15.6442 4.94158C15.6437 4.87519 15.6563 4.80935 15.6815 4.7479C15.7066 4.68645 15.7437 4.63063 15.7907 4.58368C15.8376 4.53674 15.8934 4.49961 15.9549 4.47447C16.0163 4.44933 16.0822 4.43668 16.1486 4.43725C16.215 4.43783 16.2806 4.45162 16.3416 4.47783C16.4026 4.50403 16.4577 4.54212 16.5039 4.58988L19.2841 7.37016C19.5776 7.66198 19.8103 8.00911 19.9687 8.39146C20.1271 8.77381 20.2081 9.18379 20.207 9.59766V18.8501C20.2061 19.6852 19.8739 20.4858 19.2834 21.0764C18.6929 21.6669 17.8922 21.999 17.0571 22Z" fill="#212121"/>
</svg>
