<svg width="24" height="24" viewBox="0 0 24 24" fill="none" xmlns="http://www.w3.org/2000/svg">
<path d="M13.3724 13.3435C13.2417 13.345 13.1162 13.3949 13.0203 13.4837C12.9243 13.5725 12.8648 13.6938 12.8533 13.824C12.8483 13.9565 12.896 14.0856 12.986 14.1829C13.076 14.2803 13.2009 14.3381 13.3333 14.3436C13.4393 14.3475 13.5453 14.3495 13.6512 14.3495C14.9726 14.345 16.2741 14.0273 17.449 13.4225C18.6239 12.8178 19.6387 11.9432 20.4103 10.8704C21.1818 9.79768 21.6881 8.55733 21.8876 7.25109C22.0871 5.94485 21.9742 4.60991 21.5581 3.35574C21.4839 3.1448 21.3633 2.95317 21.2053 2.79496C21.0473 2.63675 20.8558 2.51599 20.6449 2.44155C19.4032 2.02926 18.0821 1.91425 16.7879 2.10579C15.4936 2.29733 14.2625 2.79007 13.1934 3.54433C12.1244 4.2986 11.2474 5.29332 10.6331 6.44843C10.0187 7.60353 9.6841 8.88675 9.65624 10.1948C9.65556 10.2053 9.65024 11.33 9.65024 11.33C8.74526 11.5096 7.81056 11.4717 6.92307 11.2195C6.03558 10.9673 5.22069 10.5079 4.54547 9.87912C3.96915 9.2723 3.53409 8.54558 3.27145 7.75097C3.0088 6.95637 2.92506 6.11353 3.02621 5.28277C3.03636 5.15794 3.09056 5.04078 3.17912 4.95222C3.26769 4.86366 3.38485 4.80946 3.50968 4.79931C4.34051 4.69715 5.18366 4.78037 5.97849 5.04297C6.77332 5.30558 7.50009 5.74106 8.10652 6.31808C8.15295 6.36451 8.20807 6.40135 8.26873 6.42648C8.3294 6.4516 8.39441 6.46454 8.46008 6.46454C8.52574 6.46454 8.59076 6.45161 8.65142 6.42648C8.71209 6.40135 8.76721 6.36452 8.81364 6.31809C8.86007 6.27166 8.8969 6.21654 8.92203 6.15588C8.94716 6.09522 8.96009 6.0302 8.96009 5.96454C8.96009 5.89887 8.94716 5.83385 8.92204 5.77319C8.89691 5.71253 8.86008 5.65741 8.81365 5.61097C8.1056 4.92928 7.2549 4.41345 6.32308 4.10079C5.39126 3.78812 4.40161 3.68643 3.42568 3.80307C3.06531 3.83242 2.72711 3.98889 2.47145 4.24455C2.21579 4.50021 2.05932 4.83842 2.02998 5.19878C1.91517 6.17459 2.01778 7.16371 2.33043 8.09517C2.64309 9.02663 3.15804 9.87734 3.83834 10.5863C4.46082 11.189 5.19695 11.6619 6.0039 11.9774C6.81084 12.293 7.67249 12.4449 8.53871 12.4244C8.91066 12.4209 9.28198 12.3927 9.65019 12.34V20.9999H5.15005C5.01742 20.9999 4.89023 21.0526 4.79645 21.1464C4.70267 21.2401 4.64998 21.3673 4.64998 21.5C4.64998 21.6326 4.70267 21.7598 4.79645 21.8536C4.89023 21.9473 5.01742 22 5.15005 22H15.1515C15.2841 22 15.4113 21.9473 15.5051 21.8536C15.5988 21.7598 15.6515 21.6326 15.6515 21.5C15.6515 21.3673 15.5988 21.2401 15.5051 21.1464C15.4113 21.0526 15.2841 20.9999 15.1515 20.9999H10.6503V10.3099C10.6613 9.15143 10.9455 8.01192 11.4798 6.98397C12.0141 5.95602 12.7834 5.06865 13.7252 4.394C14.667 3.71934 15.7547 3.27644 16.8998 3.10129C18.045 2.92615 19.2154 3.0237 20.3158 3.38602C20.3843 3.41074 20.4465 3.45025 20.498 3.50174C20.5494 3.55323 20.589 3.61543 20.6137 3.68392C20.985 4.8097 21.0788 6.00851 20.8872 7.17835C20.6956 8.34819 20.2242 9.45443 19.5132 10.4029C18.8022 11.3514 17.8725 12.1141 16.8033 12.6261C15.7342 13.1381 14.5571 13.3842 13.3724 13.3435H13.3724Z" fill="#212121"/>
</svg>
