<svg width="24" height="24" viewBox="0 0 24 24" fill="none" xmlns="http://www.w3.org/2000/svg">
<path d="M17.3894 9.43327C17.344 9.43324 17.2988 9.42717 17.2551 9.41521C17.1273 9.3797 17.0188 9.29489 16.9535 9.17942C16.8882 9.06396 16.8715 8.9273 16.9069 8.79948C17.0958 8.12 17.125 7.40604 16.9923 6.7134C16.8595 6.02076 16.5684 5.36819 16.1417 4.80668C15.715 4.24516 15.1643 3.78991 14.5325 3.47649C13.9007 3.16307 13.205 2.99997 12.4998 2.99993C11.7945 2.99989 11.0988 3.16292 10.467 3.47627C9.83522 3.78962 9.28442 4.24481 8.85765 4.80627C8.43089 5.36774 8.13972 6.02028 8.0069 6.7129C7.87408 7.40553 7.90321 8.11948 8.092 8.79899C8.10957 8.86228 8.1145 8.92841 8.10651 8.9936C8.09852 9.0588 8.07777 9.12178 8.04545 9.17896C8.01312 9.23613 7.96984 9.28638 7.9181 9.32683C7.86635 9.36728 7.80714 9.39715 7.74385 9.41472C7.68056 9.43229 7.61443 9.43722 7.54924 9.42923C7.48404 9.42124 7.42106 9.40049 7.36389 9.36817C7.30671 9.33584 7.25646 9.29256 7.21601 9.24082C7.17556 9.18907 7.1457 9.12986 7.12813 9.06657C6.89814 8.23851 6.86272 7.36849 7.02463 6.52447C7.18654 5.68046 7.54139 4.8853 8.06147 4.20113C8.58155 3.51695 9.25276 2.96228 10.0227 2.58045C10.7926 2.19862 11.6404 1.99996 12.4998 2C13.3592 2.00004 14.207 2.19877 14.9768 2.58068C15.7467 2.96258 16.4179 3.51731 16.9379 4.20153C17.4579 4.88576 17.8127 5.68094 17.9745 6.52497C18.1364 7.369 18.1009 8.23902 17.8708 9.06706C17.8415 9.17227 17.7786 9.26501 17.6917 9.33113C17.6047 9.39725 17.4986 9.43312 17.3894 9.43327Z" fill="black"/>
<path d="M15.1621 6.79688H9.83887C9.70626 6.79688 9.57908 6.7442 9.48531 6.65043C9.39155 6.55666 9.33887 6.42948 9.33887 6.29688C9.33887 6.16427 9.39155 6.03709 9.48531 5.94332C9.57908 5.84955 9.70626 5.79688 9.83887 5.79688H15.1621C15.2947 5.79688 15.4219 5.84955 15.5157 5.94332C15.6094 6.03709 15.6621 6.16427 15.6621 6.29688C15.6621 6.42948 15.6094 6.55666 15.5157 6.65043C15.4219 6.7442 15.2947 6.79688 15.1621 6.79688Z" fill="black"/>
<path d="M19.363 21.936H5.63643C5.18919 21.936 4.74714 21.8403 4.33991 21.6554C3.93268 21.4705 3.56971 21.2007 3.27533 20.864C2.98095 20.5273 2.76197 20.1315 2.63308 19.7033C2.50419 19.275 2.46837 18.8241 2.52803 18.3809L3.54463 7.91359C3.59899 7.33274 3.86869 6.79325 4.30069 6.4012C4.73268 6.00914 5.29572 5.79288 5.8791 5.79494C6.01171 5.79494 6.13889 5.84761 6.23265 5.94138C6.32642 6.03515 6.3791 6.16233 6.3791 6.29494C6.3791 6.42754 6.32642 6.55472 6.23265 6.64849C6.13889 6.74226 6.01171 6.79494 5.8791 6.79494C5.54444 6.79378 5.22144 6.91784 4.9736 7.14273C4.72576 7.36761 4.57099 7.67707 4.53971 8.01027L3.52119 18.4961C3.47775 18.7992 3.49996 19.1082 3.58634 19.402C3.67272 19.6958 3.82123 19.9676 4.02182 20.1989C4.22242 20.4303 4.4704 20.6159 4.74897 20.7431C5.02755 20.8702 5.3302 20.9361 5.63643 20.936H19.363C19.6676 20.9361 19.9688 20.871 20.2462 20.7451C20.5236 20.6192 20.7709 20.4354 20.9714 20.2061C21.1719 19.9767 21.3211 19.7072 21.4088 19.4154C21.4966 19.1237 21.5209 18.8166 21.4802 18.5147L20.4597 8.01027C20.4284 7.67707 20.2737 7.36763 20.0258 7.14274C19.778 6.91785 19.455 6.79379 19.1204 6.79494C18.9878 6.79494 18.8606 6.74226 18.7668 6.64849C18.673 6.55472 18.6204 6.42754 18.6204 6.29494C18.6204 6.16233 18.673 6.03515 18.7668 5.94138C18.8606 5.84761 18.9878 5.79494 19.1204 5.79494C19.7037 5.79289 20.2668 6.00915 20.6988 6.40121C21.1307 6.79327 21.4004 7.33275 21.4548 7.91359L22.4733 18.3994C22.5303 18.8414 22.4923 19.2905 22.3621 19.7167C22.2318 20.1429 22.0122 20.5364 21.7179 20.8711C21.4236 21.2057 21.0613 21.4738 20.6553 21.6574C20.2492 21.8411 19.8086 21.9361 19.363 21.936Z" fill="black"/>
</svg>
