<svg width="24" height="24" viewBox="0 0 24 24" fill="none" xmlns="http://www.w3.org/2000/svg">
<path d="M21.6551 7.99149C21.5275 7.80888 21.3644 7.6538 21.1756 7.53548C20.9869 7.41717 20.7762 7.33803 20.5562 7.30278C20.444 7.27885 20.3302 7.26283 20.2157 7.25483C19.485 5.68474 18.321 4.35604 16.8607 3.42511C15.4004 2.49417 13.7046 1.99974 11.9728 2C10.241 2.00026 8.54533 2.4952 7.08531 3.42657C5.6253 4.35794 4.46171 5.68699 3.73148 7.2573C3.64265 7.26413 3.55433 7.27639 3.46699 7.294C3.2388 7.3264 3.01961 7.40496 2.82279 7.52488C2.62597 7.6448 2.45564 7.80357 2.32221 7.99149C2.18756 8.18054 2.09216 8.39465 2.04164 8.62118C1.99113 8.84771 1.98652 9.08207 2.0281 9.31041L2.20271 10.2723C2.21437 10.3368 2.23863 10.3985 2.27412 10.4537C2.3096 10.5089 2.3556 10.5565 2.4095 10.5939C2.46341 10.6313 2.52415 10.6578 2.58826 10.6717C2.65238 10.6856 2.71861 10.6868 2.78318 10.6752C2.84774 10.6635 2.90938 10.6392 2.96457 10.6038C3.01977 10.5683 3.06743 10.5223 3.10484 10.4684C3.14225 10.4145 3.16868 10.3537 3.18261 10.2896C3.19655 10.2255 3.19772 10.1593 3.18606 10.0947L3.01095 9.12993C2.99265 9.03372 2.99416 8.9348 3.01537 8.8392C3.03659 8.74359 3.07707 8.65332 3.13435 8.57388C3.19561 8.49029 3.2737 8.42046 3.36359 8.36888C3.45348 8.3173 3.55317 8.28512 3.65625 8.2744C3.84388 8.22751 4.03908 8.21924 4.23 8.25009C4.42092 8.28095 4.60358 8.35028 4.76689 8.45389C4.93984 8.56214 5.08931 8.70399 5.20644 8.87106C5.32356 9.03812 5.40597 9.227 5.44877 9.42649L5.89605 11.4273C5.98875 11.8264 5.9222 12.2459 5.71054 12.5967C5.49888 12.9476 5.15878 13.202 4.76249 13.3061C4.65898 13.3315 4.55142 13.3358 4.4462 13.3189C4.34097 13.302 4.24021 13.2641 4.14987 13.2076C4.05322 13.1469 3.96972 13.0675 3.90429 12.974C3.83886 12.8805 3.79283 12.7748 3.76892 12.6633L3.64306 12.0994C3.62858 12.0354 3.60164 11.9749 3.56378 11.9213C3.52592 11.8677 3.47787 11.8221 3.42239 11.7871C3.36691 11.7521 3.30507 11.7284 3.24041 11.7173C3.17575 11.7062 3.10954 11.7079 3.04555 11.7224C2.98156 11.7368 2.92105 11.7638 2.86747 11.8016C2.81389 11.8395 2.76829 11.8875 2.73328 11.943C2.69827 11.9985 2.67453 12.0603 2.66341 12.125C2.6523 12.1897 2.65403 12.2559 2.6685 12.3199L2.79437 12.8818C2.84672 13.1228 2.94696 13.3509 3.08915 13.5525C3.23134 13.7541 3.41257 13.9251 3.6221 14.0553C3.90643 14.2336 4.2352 14.3283 4.5708 14.3285C4.71472 14.3285 4.85814 14.3114 4.99807 14.2777C5.10417 14.2481 5.20812 14.2113 5.30921 14.1675C5.36786 14.3044 5.42353 14.4419 5.49078 14.5753H5.47122C4.67186 14.5763 3.90555 14.8943 3.34037 15.4596C2.77518 16.0249 2.45727 16.7913 2.45636 17.5906V20.0021C2.45697 20.5318 2.66765 21.0396 3.04219 21.4142C3.41673 21.7887 3.92455 21.9994 4.45423 22H15.5625C15.695 22 15.822 21.9474 15.9157 21.8537C16.0094 21.76 16.062 21.633 16.062 21.5005C16.062 21.3681 16.0094 21.241 15.9157 21.1474C15.822 21.0537 15.695 21.0011 15.5625 21.0011H4.45423C4.18938 21.0008 3.93545 20.8955 3.74817 20.7082C3.56089 20.5209 3.45556 20.267 3.4553 20.0021V17.5906C3.45579 17.0561 3.66832 16.5436 4.04626 16.1655C4.4242 15.7875 4.93667 15.5749 5.47122 15.5742H6.32083C6.38643 15.5743 6.4514 15.5614 6.51201 15.5363C6.57263 15.5112 6.62771 15.4744 6.67409 15.428C6.72048 15.3816 6.75727 15.3266 6.78236 15.2659C6.80744 15.2053 6.82034 15.1404 6.8203 15.0748C6.81913 14.9991 6.80045 14.9247 6.76573 14.8575C6.75426 14.7983 6.73211 14.7417 6.70037 14.6904C6.4856 14.3505 6.30428 13.9906 6.15894 13.6157C6.47123 13.3073 6.70028 12.9248 6.82472 12.5039C6.94916 12.083 6.96494 11.6374 6.87059 11.2088L6.42332 9.20798C6.38479 9.03665 6.329 8.86967 6.25679 8.7096C6.26864 8.69529 6.27961 8.68028 6.28965 8.66465C6.68822 7.81031 7.27419 7.05678 8.00402 6.46004C8.73384 5.86329 9.58875 5.43869 10.5052 5.21777C11.4217 4.99685 12.3762 4.9853 13.2978 5.18397C14.2193 5.38264 15.0843 5.78643 15.8283 6.36534C16.64 7.00144 17.2818 7.82835 17.6966 8.77246C17.6363 8.91316 17.5886 9.0589 17.554 9.208L17.1068 11.2088C16.9626 11.8579 17.0725 12.5375 17.414 13.1081C17.0748 13.4413 16.6829 13.7162 16.2542 13.9217C15.731 14.13 15.1835 14.2713 14.6249 14.3422C14.5157 14.0767 14.3301 13.8496 14.0917 13.6896C13.8533 13.5297 13.5728 13.4441 13.2857 13.4437H12.3365C12.1459 13.4432 11.9572 13.4803 11.781 13.5529C11.6048 13.6255 11.4446 13.7321 11.3097 13.8667C11.1748 14.0012 11.0677 14.1611 10.9947 14.3371C10.9216 14.5131 10.884 14.7018 10.884 14.8924C10.884 15.0829 10.9216 15.2716 10.9947 15.4476C11.0677 15.6236 11.1748 15.7835 11.3097 15.9181C11.4446 16.0526 11.6048 16.1593 11.781 16.2318C11.9572 16.3044 12.1459 16.3415 12.3365 16.341H13.2857C13.5895 16.34 13.8853 16.2434 14.1311 16.0647C14.3768 15.8861 14.5601 15.6346 14.6549 15.346C15.3439 15.2649 16.019 15.0923 16.6625 14.8329C16.9281 14.7112 17.1814 14.5642 17.4189 14.394C16.9796 15.1812 16.3746 15.8637 15.6457 16.3942C14.9168 16.9247 14.0814 17.2905 13.1972 17.4664C12.3131 17.6422 11.4012 17.624 10.5248 17.4128C9.64839 17.2017 8.82829 16.8027 8.12122 16.2434C8.01666 16.1624 7.88423 16.1261 7.75297 16.1426C7.6217 16.159 7.50231 16.2268 7.42097 16.3312C7.33963 16.4355 7.30297 16.5678 7.31902 16.6991C7.33508 16.8304 7.40255 16.95 7.50664 17.0317C9.02707 18.2142 10.9544 18.7455 12.866 18.5093C14.7776 18.273 16.5175 17.2884 17.7043 15.7713C17.7529 15.7088 17.7874 15.6381 17.8339 15.5742H18.4774C19.012 15.5748 19.5245 15.7875 19.9025 16.1655C20.2805 16.5435 20.4932 17.056 20.4938 17.5906V20.0021C20.4935 20.267 20.3882 20.5209 20.2009 20.7082C20.0136 20.8955 19.7597 21.0008 19.4948 21.0011H18.5418C18.4093 21.0011 18.2822 21.0537 18.1886 21.1474C18.0949 21.241 18.0423 21.3681 18.0423 21.5005C18.0423 21.633 18.0949 21.76 18.1886 21.8537C18.2822 21.9474 18.4093 22 18.5418 22H19.4948C20.0245 21.9994 20.5323 21.7887 20.9069 21.4142C21.2814 21.0396 21.4921 20.5318 21.4927 20.0021V17.5906C21.4918 16.7912 21.1738 16.0248 20.6085 15.4595C20.0432 14.8942 19.2768 14.5762 18.4774 14.5753H18.4457C18.5151 14.4383 18.5735 14.2964 18.6341 14.1553C18.7461 14.2048 18.8616 14.2457 18.9798 14.2778C19.1195 14.3114 19.2628 14.3285 19.4066 14.3285C19.7421 14.3282 20.0709 14.2336 20.3553 14.0553C20.5648 13.9251 20.746 13.7542 20.8882 13.5526C21.0304 13.351 21.1306 13.1229 21.183 12.8818L21.3088 12.3199C21.3233 12.2559 21.3251 12.1897 21.3139 12.125C21.3028 12.0604 21.2791 11.9985 21.2441 11.943C21.2091 11.8876 21.1635 11.8395 21.1099 11.8017C21.0563 11.7638 20.9958 11.7369 20.9318 11.7224C20.8678 11.7079 20.8016 11.7062 20.7369 11.7173C20.6723 11.7284 20.6104 11.7521 20.555 11.7872C20.4995 11.8222 20.4514 11.8678 20.4136 11.9213C20.3757 11.9749 20.3488 12.0354 20.3343 12.0994L20.2084 12.6633C20.1845 12.7749 20.1385 12.8805 20.0731 12.974C20.0076 13.0675 19.9241 13.1469 19.8275 13.2076C19.737 13.2636 19.6363 13.3011 19.5313 13.318C19.4262 13.3349 19.3188 13.3309 19.2153 13.3061C18.8189 13.2022 18.4787 12.9477 18.2669 12.5969C18.0552 12.246 17.9886 11.8264 18.0813 11.4273L18.5286 9.42647C18.5714 9.22698 18.6538 9.0381 18.7709 8.87104C18.8881 8.70397 19.0375 8.56212 19.2105 8.45387C19.3815 8.34819 19.5722 8.27854 19.7711 8.24919C19.97 8.21983 20.1727 8.23139 20.367 8.28315C20.462 8.29649 20.5532 8.32916 20.6351 8.37916C20.717 8.42916 20.7877 8.49542 20.843 8.57384C20.9005 8.65373 20.941 8.74452 20.9622 8.84064C20.9833 8.93676 20.9846 9.03618 20.9659 9.13282L20.7913 10.0947C20.7795 10.1593 20.7805 10.2256 20.7944 10.2899C20.8082 10.3541 20.8346 10.415 20.872 10.469C20.9094 10.523 20.9571 10.5691 21.0124 10.6046C21.0676 10.6402 21.1293 10.6645 21.194 10.6762C21.2587 10.6879 21.325 10.6867 21.3892 10.6727C21.4534 10.6587 21.5142 10.6322 21.5681 10.5947C21.622 10.5571 21.668 10.5093 21.7035 10.454C21.7389 10.3987 21.7631 10.3369 21.7746 10.2722L21.9488 9.31326C21.9907 9.08451 21.9863 8.84966 21.9359 8.62263C21.8854 8.39559 21.79 8.18098 21.6551 7.99149ZM13.2856 15.3421H12.3364C12.2772 15.3424 12.2185 15.3309 12.1637 15.3085C12.1089 15.286 12.0591 15.2529 12.0171 15.2111C11.9751 15.1693 11.9418 15.1197 11.919 15.065C11.8963 15.0103 11.8846 14.9516 11.8846 14.8924C11.8846 14.8331 11.8963 14.7745 11.919 14.7198C11.9418 14.6651 11.9751 14.6154 12.0171 14.5736C12.0591 14.5318 12.1089 14.4988 12.1637 14.4763C12.2185 14.4538 12.2772 14.4424 12.3364 14.4427H13.2856C13.3449 14.4424 13.4036 14.4538 13.4584 14.4763C13.5132 14.4988 13.563 14.5318 13.605 14.5736C13.647 14.6154 13.6803 14.6651 13.703 14.7198C13.7258 14.7745 13.7375 14.8331 13.7375 14.8924C13.7375 14.9516 13.7258 15.0103 13.703 15.065C13.6803 15.1197 13.647 15.1693 13.605 15.2111C13.563 15.2529 13.5132 15.286 13.4584 15.3085C13.4036 15.3309 13.3449 15.3424 13.2856 15.3421ZM18.3601 7.85374C17.7466 6.69433 16.829 5.7239 15.7057 5.04661C14.5824 4.36932 13.2959 4.01076 11.9842 4.00943C10.6725 4.0081 9.38521 4.36404 8.26054 5.03904C7.13587 5.71405 6.21627 6.68262 5.60049 7.84077C5.34741 7.65954 5.078 7.50227 4.79575 7.371C5.33876 6.31025 6.11052 5.38329 7.0553 4.65703C8.00008 3.93077 9.09432 3.42334 10.259 3.17135C11.4238 2.91936 12.6299 2.92911 13.7904 3.19989C14.9509 3.47066 16.0368 3.99572 16.9697 4.73715C17.8783 5.45203 18.6242 6.35239 19.1574 7.3782C18.8774 7.51153 18.6105 7.67072 18.3601 7.8537V7.85374Z" fill="black"/>
</svg>
