<svg width="24" height="24" viewBox="0 0 24 24" fill="none" xmlns="http://www.w3.org/2000/svg">
<path d="M18.8496 22H5.15039C4.3152 21.9991 3.51446 21.667 2.92385 21.0765C2.33324 20.486 2.00099 19.6853 2 18.8501V5.1499C2.00099 4.31471 2.33324 3.51402 2.92385 2.9235C3.51446 2.33298 4.3152 2.00086 5.15039 2H18.8496C19.6848 2.00086 20.4855 2.33298 21.0761 2.9235C21.6668 3.51402 21.999 4.31471 22 5.1499V7.5029C22 7.63551 21.9473 7.76269 21.8536 7.85645C21.7598 7.95022 21.6326 8.0029 21.5 8.0029C21.3674 8.0029 21.2402 7.95022 21.1464 7.85645C21.0527 7.76269 21 7.63551 21 7.5029V5.1499C20.9993 4.57985 20.7725 4.03336 20.3693 3.63032C19.9662 3.22728 19.4197 3.0006 18.8496 3H5.15039C4.58034 3.0006 4.0338 3.22728 3.63067 3.63032C3.22753 4.03336 3.00073 4.57985 3 5.1499V18.8501C3.00073 19.4202 3.22753 19.9666 3.63067 20.3697C4.0338 20.7727 4.58034 20.9994 5.15039 21H18.8496C19.4197 20.9994 19.9662 20.7727 20.3693 20.3697C20.7725 19.9666 20.9993 19.4202 21 18.8501V10.4985C21 10.3659 21.0527 10.2388 21.1464 10.145C21.2402 10.0512 21.3674 9.99854 21.5 9.99854C21.6326 9.99854 21.7598 10.0512 21.8536 10.145C21.9473 10.2388 22 10.3659 22 10.4985V18.8501C21.999 19.6853 21.6668 20.486 21.0761 21.0765C20.4855 21.667 19.6848 21.9991 18.8496 22Z" fill="black"/>
<path d="M11.5 13H6.5C6.10231 12.9996 5.72103 12.8414 5.43982 12.5602C5.15861 12.279 5.00043 11.8977 5 11.5V6.5C5.00043 6.10231 5.15861 5.72103 5.43982 5.43982C5.72103 5.15861 6.10231 5.00043 6.5 5H11.5C11.8977 5.00043 12.279 5.15861 12.5602 5.43982C12.8414 5.72103 12.9996 6.10231 13 6.5V11.5C12.9996 11.8977 12.8414 12.279 12.5602 12.5602C12.279 12.8414 11.8977 12.9996 11.5 13ZM6.5 6C6.36744 6.00017 6.24037 6.05291 6.14664 6.14664C6.05291 6.24037 6.00017 6.36744 6 6.5V11.5C6.00017 11.6326 6.05291 11.7596 6.14664 11.8534C6.24037 11.9471 6.36744 11.9998 6.5 12H11.5C11.6326 11.9998 11.7596 11.9471 11.8534 11.8534C11.9471 11.7596 11.9998 11.6326 12 11.5V6.5C11.9998 6.36744 11.9471 6.24037 11.8534 6.14664C11.7596 6.05291 11.6326 6.00017 11.5 6H6.5Z" fill="black"/>
<path d="M18.5 16H5.5C5.36739 16 5.24021 15.9473 5.14645 15.8536C5.05268 15.7598 5 15.6326 5 15.5C5 15.3674 5.05268 15.2402 5.14645 15.1464C5.24021 15.0527 5.36739 15 5.5 15H18.5C18.6326 15 18.7598 15.0527 18.8536 15.1464C18.9473 15.2402 19 15.3674 19 15.5C19 15.6326 18.9473 15.7598 18.8536 15.8536C18.7598 15.9473 18.6326 16 18.5 16Z" fill="black"/>
<path d="M18.5 18.998H5.5C5.36739 18.998 5.24021 18.9454 5.14645 18.8516C5.05268 18.7578 5 18.6307 5 18.498C5 18.3654 5.05268 18.2383 5.14645 18.1445C5.24021 18.0507 5.36739 17.998 5.5 17.998H18.5C18.6326 17.998 18.7598 18.0507 18.8536 18.1445C18.9473 18.2383 19 18.3654 19 18.498C19 18.6307 18.9473 18.7578 18.8536 18.8516C18.7598 18.9454 18.6326 18.998 18.5 18.998Z" fill="black"/>
<path d="M18.5 7.49805H15.5C15.3674 7.49805 15.2402 7.44537 15.1464 7.3516C15.0527 7.25783 15 7.13066 15 6.99805C15 6.86544 15.0527 6.73826 15.1464 6.64449C15.2402 6.55073 15.3674 6.49805 15.5 6.49805H18.5C18.6326 6.49805 18.7598 6.55073 18.8536 6.64449C18.9473 6.73826 19 6.86544 19 6.99805C19 7.13066 18.9473 7.25783 18.8536 7.3516C18.7598 7.44537 18.6326 7.49805 18.5 7.49805Z" fill="black"/>
<path d="M18.5 9.5H15.5C15.3674 9.5 15.2402 9.44732 15.1464 9.35355C15.0527 9.25978 15 9.13261 15 9C15 8.86739 15.0527 8.74021 15.1464 8.64645C15.2402 8.55268 15.3674 8.5 15.5 8.5H18.5C18.6326 8.5 18.7598 8.55268 18.8536 8.64645C18.9473 8.74021 19 8.86739 19 9C19 9.13261 18.9473 9.25978 18.8536 9.35355C18.7598 9.44732 18.6326 9.5 18.5 9.5Z" fill="black"/>
<path d="M18.5 11.502H15.5C15.3674 11.502 15.2402 11.4493 15.1464 11.3555C15.0527 11.2617 15 11.1346 15 11.002C15 10.8693 15.0527 10.7422 15.1464 10.6484C15.2402 10.5546 15.3674 10.502 15.5 10.502H18.5C18.6326 10.502 18.7598 10.5546 18.8536 10.6484C18.9473 10.7422 19 10.8693 19 11.002C19 11.1346 18.9473 11.2617 18.8536 11.3555C18.7598 11.4493 18.6326 11.502 18.5 11.502Z" fill="black"/>
</svg>
